<svg xmlns="http://www.w3.org/2000/svg" viewBox="0 0 512 512" xml:space="preserve"><circle fill="#f2e5bc" cx="256" cy="256" r="247"/><path fill="#d79921" d="M257.9 152.3c10.3 0 20.6 1.5 30.9 4.3 7.5 2.1 13.9-.2 17.8-7 7.4-13 6.7-11.9 21.9-39.1.7-1.2.8-3.4.8-4.8 0-1.6-.2-2.7-.8-4.2-2.8-6.5-8.8-9.3-14.7-11.8-13.7-5.6-28.2-7.6-42.8-8.7-4.4-.3-8.8-.5-13.1-.6-4.4 0-8.7.2-13.1.6-14.6 1.1-29.1 3.1-42.8 8.7-5.9 2.4-11.9 5.3-14.7 11.8-.6 1.5-.8 2.6-.8 4.2 0 1.4.2 3.6.8 4.8 15.2 27.2 14.5 26.1 21.9 39.1 3.9 6.8 10.3 9.1 17.8 7 10.3-2.8 20.6-4.2 30.9-4.3"/><path fill="#458588" d="M346.1 204.8c5.2 8.9 9.2 18.5 11.9 28.9 2 7.5 7.2 11.9 15.1 11.8 14.9-.2 13.7-.2 44.8-.9 1.4 0 3.4-1 4.6-1.7 1.4-.8 2.2-1.5 3.2-2.8 4.2-5.7 3.6-12.3 2.7-18.7-2.1-14.6-7.7-28.2-14.1-41.3-1.9-4-4-7.8-6.1-11.6-2.2-3.7-4.6-7.4-7.1-11-8.4-12-17.4-23.6-29.2-32.5-5.1-3.9-10.6-7.6-17.6-6.7-1.6.2-2.6.6-4 1.4-1.2.7-3 2-3.7 3.2-15.8 26.8-15.2 25.7-22.6 38.7-3.9 6.8-2.6 13.5 3 18.9 7.4 7.2 13.9 15.4 19.1 24.3"/><path fill="#b16286" d="M344.2 309.6c-5.3 8.9-11.8 17-19.5 24.4-5.6 5.4-6.9 12.1-3.1 18.9 7.4 13 6.8 11.9 22.5 38.8.7 1.2 2.5 2.5 3.7 3.2 1.4.8 2.4 1.2 4 1.4 7 .9 12.5-2.8 17.6-6.7 11.8-8.9 20.9-20.4 29.3-32.4 2.5-3.6 4.9-7.3 7.2-11 2.2-3.8 4.2-7.6 6.2-11.6 6.5-13.1 12.2-26.7 14.3-41.3.9-6.3 1.5-12.9-2.6-18.7-.9-1.3-1.8-2-3.2-2.8-1.2-.7-3.2-1.7-4.6-1.7-31.1-.8-29.9-.8-44.8-1.1-7.8-.1-13.1 4.2-15.1 11.8-2.7 10.3-6.7 19.9-11.9 28.8"/><path fill="#689d6a" d="M257.9 359.7c10.3 0 20.6-1.5 30.9-4.3 7.5-2.1 13.9.2 17.8 7 7.4 13 6.7 11.9 21.9 39.1.7 1.2.8 3.4.8 4.8 0 1.6-.2 2.7-.8 4.2-2.8 6.5-8.8 9.3-14.7 11.8-13.7 5.6-28.2 7.6-42.8 8.7-4.4.3-8.8.5-13.1.6-4.4 0-8.7-.2-13.1-.6-14.6-1.1-29.1-3.1-42.8-8.7-5.9-2.4-11.9-5.3-14.7-11.8-.6-1.5-.8-2.6-.8-4.2 0-1.4.2-3.6.8-4.8 15.2-27.2 14.5-26.1 21.9-39.1 3.9-6.8 10.3-9.1 17.8-7 10.3 2.8 20.6 4.2 30.9 4.3"/><path fill="cc241d" d="M167.8 309.6c5.3 8.9 11.8 17 19.5 24.4 5.6 5.4 6.9 12.1 3.1 18.9-7.4 13-6.8 11.9-22.5 38.8-.7 1.2-2.5 2.5-3.7 3.2-1.4.8-2.4 1.2-4 1.4-7 .9-12.5-2.8-17.6-6.7-11.8-8.9-20.9-20.4-29.3-32.4-2.5-3.6-4.9-7.3-7.2-11-2.2-3.8-4.2-7.6-6.2-11.6-6.5-13.1-12.2-26.7-14.3-41.3-.9-6.3-1.5-12.9 2.6-18.7.9-1.3 1.8-2 3.2-2.8 1.2-.7 3.2-1.7 4.6-1.7 31.1-.8 29.9-.8 44.8-1.1 7.8-.1 13.1 4.2 15.1 11.8 2.7 10.3 6.7 19.9 11.9 28.8"/><path fill="#98971a" d="M165.9 204.8c-5.2 8.9-9.2 18.5-11.9 28.9-2 7.5-7.2 11.9-15.1 11.8-14.9-.2-13.7-.2-44.8-.9-1.4 0-3.4-1-4.6-1.7-1.4-.8-2.2-1.5-3.2-2.8-4.2-5.7-3.6-12.3-2.7-18.7 2.1-14.6 7.7-28.2 14.1-41.3 1.9-4 4-7.8 6.1-11.6 2.2-3.7 4.6-7.4 7.1-11 8.4-12 17.4-23.6 29.2-32.5 5.1-3.9 10.6-7.6 17.6-6.7 1.6.2 2.6.6 4 1.4 1.2.7 3 2 3.7 3.2 15.8 26.8 15.2 25.7 22.6 38.7 3.9 6.8 2.6 13.5-3 18.9-7.4 7.2-13.9 15.4-19.1 24.3"/><path style="fill:#cc241d;fill-opacity:1;stroke-width:.27118644" d="M154.73 395.772c-6.96-1.509-18.083-10.203-28.68-22.419-18.822-21.695-34.859-52.528-39.374-75.703-2.038-10.458-1.801-16.361.858-21.387 1.08-2.042 2.645-3.449 5.353-4.81l2.205-1.109 16.324-.388 23.375-.555c8.258-.195 10.42.065 13.595 1.633 3.8 1.878 5.817 5.018 8.106 12.62 5.716 18.979 13.302 32.011 27.6 47.413 4.826 5.198 5.94 6.614 7.077 8.993.805 1.685.842 1.914.842 5.2v3.439l-1.696 3.363c-2.805 5.557-16.367 29.102-21.245 36.882-1.051 1.677-2.36 3.512-2.909 4.078-1.258 1.3-3.186 2.25-5.612 2.763-2.3.487-3.523.485-5.819-.013"/><path style="fill:#98971a;fill-opacity:1;stroke-width:.54237288" d="M110.246 244.776c-16.215-.387-17.378-.483-19.71-1.611-5.153-2.495-7.598-8.261-7.11-16.766.744-12.977 5.86-28.898 15.405-47.947 12.857-25.657 35.358-52.152 49.56-58.36 5.984-2.615 12.034-1.933 15.54 1.752 1.572 1.652 19.707 32.073 23.964 40.2 1.684 3.215 1.952 4.229 1.935 7.322-.026 4.748-1.342 7.2-7.018 13.082-13.627 14.121-22.75 29.657-28.018 47.716-2.06 7.06-3.065 9.054-5.821 11.545-4.302 3.886-4.352 3.89-38.727 3.067"/><path style="fill:#d79921;fill-opacity:1;stroke-width:.54237288" d="M215.598 155.465c-1.568-.82-3.532-2.346-4.363-3.39s-6.577-10.929-12.767-21.966c-10.274-18.318-11.276-20.335-11.49-23.129-.313-4.116.555-6.427 3.716-9.885 3.227-3.531 7.68-5.959 16.512-9.002 27.832-9.59 73.594-9.6 101.35-.022 8.291 2.86 12.328 4.925 15.577 7.964 5.015 4.69 6.233 10.29 3.403 15.638-4.858 9.181-21.688 38.822-22.941 40.402-.828 1.044-2.789 2.57-4.357 3.39-3.661 1.916-7.435 1.961-14.56.176-10.117-2.536-16.45-3.281-27.76-3.269-11.307.013-17.834.781-27.76 3.269-7.125 1.785-10.899 1.74-14.56-.176"/><path style="fill:#458588;fill-opacity:1;stroke-width:.54237288" d="M367.576 244.345c-3.025-1.059-6.159-3.644-7.483-6.173-.431-.823-2.085-5.46-3.675-10.305-5.913-18.016-13.744-31.223-26.493-44.677-7.251-7.652-8.936-11.485-7.477-17.019.956-3.628 23.086-41.865 25.805-44.588 3.822-3.826 10.086-4.12 16.628-.779 14.19 7.248 35.235 32.09 47.451 56.011 10.604 20.766 16 37.835 16.108 50.954.052 6.259-.016 6.68-1.583 9.749-1.147 2.245-2.358 3.69-4.036 4.818-2.212 1.486-2.905 1.64-8.938 1.992-3.598.21-14.84.526-24.982.704-17.081.3-18.653.249-21.325-.687"/><path style="fill:#b16286;fill-opacity:1;stroke-width:.54237288" d="M348.707 395.04c-1.225-.607-2.728-1.644-3.34-2.305-1.84-1.99-23.952-40.213-24.98-43.182-.942-2.719-.757-7.062.409-9.63.562-1.24 3.27-4.656 6.015-7.593 14.911-15.948 23.198-29.934 28.517-48.132 2.688-9.194 5.297-12.566 11.02-14.24 2.637-.772 5.4-.795 26.848-.223 22.175.591 24.076.718 26.214 1.741 5.409 2.588 7.49 7.607 7.04 16.981-1.513 31.615-32.464 84.485-60.329 103.056-7.06 4.705-12.718 5.85-17.414 3.526"/><path style="fill:#b16286;fill-opacity:1;stroke-width:.54237288" d="M350.516 395.447c-3.787-1.222-5.45-3.214-12.182-14.584-7.014-11.849-14.974-25.797-16.956-29.713-1.456-2.877-1.65-7.957-.415-10.872.443-1.044 2.73-4.07 5.083-6.724 16.319-18.408 22.843-29.092 28.682-46.97 3.664-11.22 5.671-14.269 10.52-15.98 2.805-.989 18.508-1.11 39.201-.302 14.313.558 15.352.794 18.413 4.187 2.753 3.051 3.413 6.252 3.044 14.756-1.343 30.954-32.517 84.046-59.926 102.057-5.976 3.927-11.528 5.415-15.464 4.145"/><path style="fill:#689d6a;fill-opacity:1;stroke-width:.54237288" d="M244.901 430.848c-19.554-1.825-31.031-4.14-41.83-8.437-12.074-4.805-16.705-9.827-16.079-17.436.213-2.576.839-4.155 3.504-8.832 1.785-3.132 6.982-12.374 11.549-20.536s9.126-15.664 10.13-16.669c4.209-4.208 8.515-4.885 17.365-2.73 9.486 2.31 15.583 3.124 25.666 3.426 11.034.331 18.984-.507 30.045-3.166 10.086-2.426 14.115-1.88 18.355 2.485 1.95 2.008 3.681 4.945 16.78 28.465 8.243 14.8 8.582 15.531 8.57 18.44-.014 3.774-1.297 6.676-4.252 9.618-6.528 6.5-24.728 12.3-45.657 14.549-9.7 1.042-27.263 1.466-34.146.823"/><path style="opacity:1;fill:#98971a;fill-opacity:1;stroke-width:1.53406215" d="M92.571 243.52c-16.434-3.154-7.392-45.64 17.88-84.016 14-21.257 35.396-40.689 44.801-40.689 6.166 0 9.176 3.454 21.96 25.198 14.944 25.416 15.05 27.096 2.598 41.495-11.694 13.524-19.059 26.092-24.019 40.985-5.952 17.874-6.527 18.161-35.776 17.906-13.175-.115-25.525-.51-27.444-.878"/></svg>